<svg xmlns="http://www.w3.org/2000/svg" width="190" height="217" viewBox="0 0 190 217">
  <defs>
    <style>
      .cls-1 {
        fill: none;
      }
    </style>
  </defs>
  <title>eight</title>
  <g id="Layer_2" data-name="Layer 2">
    <rect id="Fill" class="cls-1" width="190" height="217"/>
  </g>
  <g id="Layer_1" data-name="Layer 1">
    <path d="M173.39,55.8c0,21-9.3,45-32.41,47.4v1.2c30.91,2.7,37.8,28.8,37.8,55.2,0,41.4-16.5,55.8-84.9,55.8C26.38,215.4,9,201,9,159.6c0-26.4,6.9-52.5,37.8-55.2v-1.2c-23.1-2.4-32.4-26.4-32.4-47.4,0-39,13.8-55.8,79.5-55.8C160.18,0,173.39,16.8,173.39,55.8ZM69.88,147.6c0,18.6,4.5,22.5,24.3,22.5,19.2,0,23.4-3.9,23.4-22.5,0-19.8-4.2-24-23.1-24C74.08,123.6,69.88,127.8,69.88,147.6Zm2.7-83.1c0,16.2,4.5,19.5,22.2,19.5,17.1,0,20.4-3.3,20.4-19.5,0-19.2-3.9-22.5-21-22.5C76.78,42,72.58,45.3,72.58,64.5Z" fill="#414141" />
  </g>
</svg>
