<svg xmlns="http://www.w3.org/2000/svg" width="190" height="217" viewBox="0 0 190 217">
  <defs>
    <style>
      .cls-1 {
        fill: none;
      }
    </style>
  </defs>
  <title>five</title>
  <g id="Layer_2" data-name="Layer 2">
    <rect id="Fill" class="cls-1" width="190" height="217"/>
  </g>
  <g id="Layer_1" data-name="Layer 1">
    <path d="M162.89,50.7H77.68l-1.8,21.6,38.4,5.1c46.8,5.7,57,39.3,57,69.3,0,38.7-18.6,68.1-78.3,68.1-21.9,0-49.2-2.1-76.8-5.4l5.4-48.3c20.4.9,39.3,1.8,54.3,1.8,24,0,29.7-4.8,30.9-18.6,1.2-14.1-6.9-18.9-27.6-20.4l-37.8-4.8c-10.8-1.5-18.3-9.9-17.7-20.4l5.7-94.5H165Z" fill="#414141" />
  </g>
</svg>
