<svg xmlns="http://www.w3.org/2000/svg" width="190" height="217" viewBox="0 0 190 217">
  <defs>
    <style>
      .cls-1 {
        fill: none;
      }
    </style>
  </defs>
  <title>nine</title>
  <g id="Layer_2" data-name="Layer 2">
    <rect id="Fill" class="cls-1" width="190" height="217"/>
  </g>
  <g id="Layer_1" data-name="Layer 1">
    <path d="M175.48,105.9c0,94.2-25.2,108.9-93.6,108.9-12.3,0-36,0-61.5-6.6l2.7-39c19.5.3,30,.3,58.8.3,24,0,29.7-9,31.2-38.7-10.8,7.5-22.8,10.2-40.2,10.2C25.48,141,12,116.1,12,78,12,23.1,28.48.6,92.68.6,159.89.6,175.48,20.7,175.48,105.9Zm-82.8-7.5c7.8,0,13.2-1.5,20.7-5.4-.3-41.7-2.4-47.1-21.3-47.1-18.3,0-19.2,7.2-19.2,30.6C72.88,95.4,76.48,98.4,92.68,98.4Z" fill="#414141" />
  </g>
</svg>
