<svg xmlns="http://www.w3.org/2000/svg" width="190" height="217" viewBox="0 0 190 217">
  <defs>
    <style>
      .cls-1 {
        fill: none;
      }
    </style>
  </defs>
  <title>six</title>
  <g id="Layer_2" data-name="Layer 2">
    <rect id="Fill" class="cls-1" width="190" height="217"/>
  </g>
  <g id="Layer_1" data-name="Layer 1">
    <path d="M176.09,137.4c0,54.9-15,77.4-81,77.4-62.4,0-83.4-20.1-83.4-105.3C11.68,15.3,42.88.6,105.28.6c11.4,0,34.2,0,56.7,6.6l-2.4,38.7h-54.3c-24.3,0-30,6-31.2,38.7,10.8-7.8,22.8-10.2,40.2-10.2C162.58,74.4,176.09,93.3,176.09,137.4Zm-60.61,1.5c0-19.2-3.6-21.9-20.7-21.9-7.8,0-13.5,1.5-21,5.1.3,42,2.4,47.4,21.9,47.4C114.88,169.5,115.48,162.3,115.48,138.9Z" fill="#414141" />
  </g>
</svg>
