<svg xmlns="http://www.w3.org/2000/svg" width="190" height="217" viewBox="0 0 190 217">
  <defs>
    <style>
      .cls-1 {
        fill: none;
      }
    </style>
  </defs>
  <title>three</title>
  <g id="Layer_2" data-name="Layer 2">
    <rect id="Fill" class="cls-1" width="190" height="217"/>
  </g>
  <g id="Layer_1" data-name="Layer 1">
    <path d="M165.59,48.3c0,30.6-6.31,48.3-34.21,52.2v1.2c30,4.5,39.3,19.5,39.6,51.9.61,44.4-20.4,61.8-77.1,61.8-25.8,0-53.1-2.4-77.4-5.7l1.8-45.6c27.9,1.2,39.9,1.5,57.6,1.5,24.6,0,30.9-2.1,30.9-21,0-15.9-4.2-21-23.1-20.7l-39.9.6V84.9h39.9c19.8,0,21.3-6.3,21.3-18.6,0-13.8-4.8-16.8-23.1-16.8H22.78L21,5.7A460.9,460.9,0,0,1,93.58,0C146.68,0,165.59,11.4,165.59,48.3Z" fill="#414141" />
  </g>
</svg>
